<svg width="33" height="33" viewBox="0 0 33 33" fill="none" xmlns="http://www.w3.org/2000/svg">
<g clip-path="url(#clip0_331_1484)">
<path d="M25.4647 17.4712C25.5082 22.1712 29.5882 23.7355 29.6332 23.7555C29.5987 23.8655 28.9814 25.9845 27.4839 28.1727C26.1894 30.0647 24.8457 31.9497 22.7294 31.9892C20.6499 32.0272 19.9812 30.7557 17.6034 30.7557C15.2264 30.7557 14.4837 31.9497 12.5149 32.0272C10.4719 32.1047 8.91619 29.981 7.61094 28.0962C4.94394 24.2402 2.90569 17.2 5.64244 12.4477C7.00194 10.0877 9.43194 8.59345 12.0692 8.55495C14.0752 8.5167 15.9687 9.90445 17.1949 9.90445C18.4204 9.90445 20.7214 8.23545 23.1404 8.48045C24.1532 8.5227 26.9957 8.88945 28.8209 11.5615C28.6742 11.6527 25.4294 13.5417 25.4647 17.4712ZM21.5564 5.9297C22.6409 4.61695 23.3709 2.78895 23.1719 0.970703C21.6084 1.03345 19.7179 2.01245 18.5967 3.3247C17.5917 4.48645 16.7117 6.34645 16.9489 8.1287C18.6917 8.2637 20.4717 7.2432 21.5564 5.9297Z" fill="black"/>
</g>
<defs>
<clipPath id="clip0_331_1484">
<rect width="32" height="32" fill="white" transform="translate(0.988281 0.5)"/>
</clipPath>
</defs>
</svg>
