<svg width="33" height="33" viewBox="0 0 33 33" fill="none" xmlns="http://www.w3.org/2000/svg">
<path d="M24.6549 4.5C25.8042 4.5 26.9064 4.95655 27.7191 5.7692C28.5317 6.58186 28.9883 7.68406 28.9883 8.83333V24.1667C28.9883 25.3159 28.5317 26.4181 27.7191 27.2308C26.9064 28.0435 25.8042 28.5 24.6549 28.5H9.32161C8.17234 28.5 7.07014 28.0435 6.25749 27.2308C5.44483 26.4181 4.98828 25.3159 4.98828 24.1667V8.83333C4.98828 7.68406 5.44483 6.58186 6.25749 5.7692C7.07014 4.95655 8.17234 4.5 9.32161 4.5H24.6549ZM13.4803 20.8387H11.1616L11.0723 20.9933L11.0123 21.1147C10.9197 21.338 10.9112 21.5872 10.9883 21.8163C11.0653 22.0454 11.2227 22.2389 11.4314 22.3609C11.6401 22.4828 11.8859 22.5251 12.1233 22.4799C12.3608 22.4346 12.5738 22.3049 12.7229 22.1147L12.7989 22.0013L13.4803 20.8387ZM18.7123 13.8653L17.5509 15.8547L21.0949 21.9987L21.1696 22.112C21.3173 22.3042 21.5298 22.4362 21.7676 22.4834C22.0054 22.5307 22.2522 22.49 22.4622 22.3688C22.6722 22.2477 22.831 22.0544 22.9091 21.8249C22.9873 21.5955 22.9794 21.3454 22.8869 21.1213L22.8269 20.9987L22.1576 19.8387H23.3243L23.4603 19.8307C23.6765 19.801 23.877 19.7014 24.0314 19.5471C24.1857 19.3928 24.2853 19.1922 24.3149 18.976L24.3243 18.84L24.3149 18.704C24.2853 18.4878 24.1857 18.2872 24.0314 18.1329C23.877 17.9786 23.6765 17.879 23.4603 17.8493L23.3243 17.84H21.0043L18.7123 13.8653ZM18.6723 9.968C18.4635 9.84594 18.2176 9.80367 17.98 9.84902C17.7425 9.89437 17.5294 10.0243 17.3803 10.2147L17.3043 10.328L16.9843 10.8733L16.6723 10.332L16.5976 10.22C16.4654 10.0488 16.2813 9.92513 16.0729 9.86744C15.8645 9.80975 15.643 9.82117 15.4416 9.9L15.3069 9.96667L15.1936 10.0413C15.0227 10.1737 14.8992 10.3579 14.8418 10.5663C14.7843 10.7747 14.796 10.9961 14.8749 11.1973L14.9416 11.3307L15.8243 12.8613L12.9163 17.84H10.6576L10.5216 17.8493C10.2823 17.8823 10.0629 18.0007 9.90416 18.1828C9.74539 18.365 9.65792 18.5984 9.65792 18.84C9.65792 19.0816 9.74539 19.315 9.90416 19.4972C10.0629 19.6793 10.2823 19.7977 10.5216 19.8307L10.6576 19.84H18.6936L17.5403 17.84L15.2323 17.8387L19.0323 11.336L19.0923 11.2147C19.1849 10.9912 19.1934 10.7418 19.1161 10.5125C19.0389 10.2833 18.8812 10.0899 18.6723 9.968Z" fill="black"/>
</svg>
