<svg width="33" height="33" viewBox="0 0 33 33" fill="none" xmlns="http://www.w3.org/2000/svg">
<path d="M14.3229 22.5002L18.3229 23.8335C18.3229 23.8335 28.3229 21.8335 29.6563 21.8335C30.9896 21.8335 30.9896 23.1668 29.6563 24.5002C28.3229 25.8335 23.6563 29.8335 19.6563 29.8335C15.6563 29.8335 12.9896 27.8335 10.3229 27.8335H3.65625" stroke="black" stroke-width="2" stroke-linecap="round" stroke-linejoin="round"/>
<path d="M3.65625 19.8335C4.98958 18.5002 7.65625 16.5002 10.3229 16.5002C12.9896 16.5002 19.3229 19.1668 20.3229 20.5002C21.3229 21.8335 18.3229 23.8335 18.3229 23.8335M11.6562 12.5002V7.16683C11.6562 6.81321 11.7967 6.47407 12.0468 6.22402C12.2968 5.97397 12.636 5.8335 12.9896 5.8335H28.9896C29.3432 5.8335 29.6823 5.97397 29.9324 6.22402C30.1824 6.47407 30.3229 6.81321 30.3229 7.16683V17.8335" stroke="black" stroke-width="2" stroke-linecap="round" stroke-linejoin="round"/>
<path d="M17.6562 5.8335H24.3229V11.8335H17.6562V5.8335Z" fill="black" stroke="black" stroke-width="2" stroke-linecap="round" stroke-linejoin="round"/>
</svg>
