<svg width="24" height="24" viewBox="0 0 24 24" fill="none" xmlns="http://www.w3.org/2000/svg">
<path d="M4.09766 15.1059V8.89394C4.09766 8.64527 4.17866 8.4486 4.34066 8.30394C4.50199 8.1586 4.69032 8.08594 4.90566 8.08594C4.98899 8.08594 5.06799 8.09427 5.14266 8.11094C5.21732 8.1276 5.28966 8.16294 5.35966 8.21694L10.0207 11.3289C10.1453 11.4156 10.2353 11.5139 10.2907 11.6239C10.346 11.7339 10.374 11.8593 10.3747 11.9999C10.3753 12.1406 10.3477 12.2659 10.2917 12.3759C10.2357 12.4859 10.1457 12.5843 10.0217 12.6709L5.35966 15.7829C5.28899 15.8363 5.21666 15.8716 5.14266 15.8889C5.06799 15.9056 4.98899 15.9139 4.90566 15.9139C4.69032 15.9139 4.50199 15.8413 4.34066 15.6959C4.17866 15.5513 4.09766 15.3546 4.09766 15.1059ZM12.9827 15.1059V8.89394C12.9827 8.64527 13.0633 8.4486 13.2247 8.30394C13.3867 8.1586 13.5753 8.08594 13.7907 8.08594C13.874 8.08594 13.9527 8.09427 14.0267 8.11094C14.1007 8.1276 14.173 8.16294 14.2437 8.21694L18.9057 11.3289C19.0303 11.4156 19.1203 11.5139 19.1757 11.6239C19.231 11.7339 19.259 11.8593 19.2597 11.9999C19.2603 12.1406 19.2323 12.2659 19.1757 12.3759C19.1203 12.4853 19.0303 12.5836 18.9057 12.6709L14.2437 15.7829C14.1737 15.8363 14.1013 15.8716 14.0267 15.8889C13.952 15.9063 13.8733 15.9146 13.7907 15.9139C13.5753 15.9139 13.3867 15.8413 13.2247 15.6959C13.0633 15.5513 12.9827 15.3546 12.9827 15.1059ZM5.09766 14.7499L9.22866 11.9999L5.09866 9.24994L5.09766 14.7499ZM13.9827 14.7499L18.1117 11.9999L13.9817 9.24994L13.9827 14.7499Z" fill="white"/>
</svg>
