<svg width="32" height="32" viewBox="0 0 32 32" fill="none" xmlns="http://www.w3.org/2000/svg">
<path d="M16.0018 21.4697L11.1618 24.3923C11.0196 24.4626 10.8876 24.491 10.7658 24.4777C10.6449 24.4635 10.5272 24.4217 10.4125 24.3523C10.2969 24.2812 10.2098 24.1808 10.1512 24.051C10.0925 23.9212 10.0872 23.7795 10.1352 23.6257L11.4232 18.1457L7.16316 14.4523C7.04316 14.3546 6.96405 14.2377 6.92582 14.1017C6.8876 13.9657 6.89605 13.8355 6.95116 13.711C7.00627 13.5866 7.0796 13.4843 7.17116 13.4043C7.2636 13.327 7.38805 13.2746 7.54449 13.247L13.1658 12.7563L15.3578 7.56701C15.4183 7.42034 15.5054 7.31457 15.6192 7.24968C15.7329 7.18479 15.8605 7.15234 16.0018 7.15234C16.1432 7.15234 16.2712 7.18479 16.3858 7.24968C16.5005 7.31457 16.5872 7.42034 16.6458 7.56701L18.8378 12.7563L24.4578 13.247C24.6152 13.2737 24.74 13.3266 24.8325 13.4057C24.9249 13.4839 24.9987 13.5857 25.0538 13.711C25.108 13.8355 25.116 13.9657 25.0778 14.1017C25.0396 14.2377 24.9605 14.3546 24.8405 14.4523L20.5805 18.1457L21.8685 23.6257C21.9183 23.7777 21.9134 23.919 21.8538 24.0497C21.7943 24.1803 21.7067 24.2808 21.5912 24.351C21.4774 24.4221 21.3596 24.4643 21.2378 24.4777C21.1169 24.491 20.9854 24.4626 20.8432 24.3923L16.0018 21.4697Z" fill="#FFC700"/>
</svg>
