<svg width="33" height="33" viewBox="0 0 33 33" fill="none" xmlns="http://www.w3.org/2000/svg">
<path d="M9.45895 0.5H24.5176C26.7642 0.5 28.9187 1.39244 30.5073 2.981C32.0958 4.56956 32.9883 6.72411 32.9883 8.97067V24.0293C32.9883 26.2759 32.0958 28.4304 30.5073 30.019C28.9187 31.6076 26.7642 32.5 24.5176 32.5H9.45895C7.21239 32.5 5.05784 31.6076 3.46928 30.019C1.88072 28.4304 0.988281 26.2759 0.988281 24.0293L0.988281 8.97067C0.988281 6.72411 1.88072 4.56956 3.46928 2.981C5.05784 1.39244 7.21239 0.5 9.45895 0.5ZM19.7989 9.71733H18.5549V18.6533C18.5657 19.3289 18.3993 19.9955 18.0723 20.5867C17.7523 21.152 17.2776 21.6133 16.7056 21.92C16.1154 22.2453 15.4252 22.4076 14.6349 22.4067C13.8456 22.4067 13.1567 22.2449 12.5683 21.9213C11.9974 21.6134 11.5244 21.1514 11.2029 20.588C10.8728 19.9979 10.7048 19.3308 10.7163 18.6547V9.716H9.47228V18.7387C9.45749 19.6104 9.68307 20.4694 10.1243 21.2213C10.5603 21.9507 11.1883 22.5467 11.9403 22.944C12.7163 23.3653 13.6145 23.576 14.6349 23.576C15.6607 23.576 16.5603 23.3667 17.3336 22.948C18.0849 22.5508 18.7123 21.9543 19.1469 21.224C19.5869 20.4707 19.8136 19.6107 19.8003 18.7387L19.7989 9.71733ZM24.6629 23.344V9.71867H23.4189V23.3453H24.6629V23.344Z" fill="black"/>
</svg>
